HIERARCHY
ROOT hip
{
  OFFSET 0 0 0
  CHANNELS 6 Xposition Yposition Zposition Zrotation Yrotation Xrotation
  JOINT abdomen
  {
    OFFSET 0 20.6881 -0.73152
    CHANNELS 3 Zrotation Xrotation Yrotation
    JOINT chest
    {
      OFFSET 0 11.7043 -0.48768
      CHANNELS 3 Zrotation Xrotation Yrotation
      JOINT neck
      {
        OFFSET 0 22.1894 -2.19456
        CHANNELS 3 Zrotation Xrotation Yrotation
        JOINT head
        {
          OFFSET -0.24384 7.07133 1.2192
          CHANNELS 3 Zrotation Xrotation Yrotation
          JOINT leftEye
          {
            OFFSET 4.14528 8.04674 8.04672
            CHANNELS 3 Zrotation Xrotation Yrotation
            End Site
            {
              OFFSET 1 0 0
            }
          }
          JOINT rightEye
          {
            OFFSET -3.6576 8.04674 8.04672
            CHANNELS 3 Zrotation Xrotation Yrotation
            End Site
            {
              OFFSET 1 0 0
            }
          }
        }
      }
      JOINT rCollar
      {
        OFFSET -2.68224 19.2634 -4.8768
        CHANNELS 3 Zrotation Xrotation Yrotation
        JOINT rShldr
        {
          OFFSET -8.77824 -1.95073 1.46304
          CHANNELS 3 Zrotation Xrotation Yrotation
          JOINT rForeArm
          {
            OFFSET -28.1742 -1.7115 0.48768
            CHANNELS 3 Zrotation Xrotation Yrotation
            JOINT rHand
            {
              OFFSET -22.5879 0.773209 7.07136
              CHANNELS 3 Zrotation Xrotation Yrotation
              JOINT rThumb1
              {
                OFFSET -1.2192 -0.487915 3.41376
                CHANNELS 3 Zrotation Xrotation Yrotation
                JOINT rThumb2
                {
                  OFFSET -3.37035 -0.52449 3.41376
                  CHANNELS 3 Zrotation Xrotation Yrotation
                  End Site
                  {
                    OFFSET -1.78271 -1.18214 1.43049
                  }
                }
              }
              JOINT rIndex1
              {
                OFFSET -7.75947 0.938293 5.60832
                CHANNELS 3 Zrotation Xrotation Yrotation
                JOINT rIndex2
                {
                  OFFSET -2.54057 -0.884171 1.56538
                  CHANNELS 3 Zrotation Xrotation Yrotation
                  End Site
                  {
                    OFFSET -1.62519 -0.234802 1.16502
                  }
                }
              }
              JOINT rMid1
              {
                OFFSET -8.24714 1.18213 3.41376
                CHANNELS 3 Zrotation Xrotation Yrotation
                JOINT rMid2
                {
                  OFFSET -3.10165 -0.590103 1.0647
                  CHANNELS 3 Zrotation Xrotation Yrotation
                  End Site
                  {
                    OFFSET -2.48547 -0.328903 0.83742
                  }
                }
              }
              JOINT rRing1
              {
                OFFSET -8.82822 0.546677 1.51678
                CHANNELS 3 Zrotation Xrotation Yrotation
                JOINT rRing2
                {
                  OFFSET -2.60934 -0.819778 -0.0198488
                  CHANNELS 3 Zrotation Xrotation Yrotation
                  End Site
                  {
                    OFFSET -2.33842 -0.294052 0.168128
                  }
                }
              }
              JOINT rPinky1
              {
                OFFSET -8.27202 -0.0477905 -0.4584
                CHANNELS 3 Zrotation Xrotation Yrotation
                JOINT rPinky2
                {
                  OFFSET -1.82734 -0.647385 -0.700984
                  CHANNELS 3 Zrotation Xrotation Yrotation
                  End Site
                  {
                    OFFSET -1.69225 -0.51767 -0.607171
                  }
                }
              }
            }
          }
        }
      }
      JOINT lCollar
      {
        OFFSET 2.68224 19.2634 -4.8768
        CHANNELS 3 Zrotation Xrotation Yrotation
        JOINT lShldr
        {
          OFFSET 8.77824 -1.95073 1.46304
          CHANNELS 3 Zrotation Xrotation Yrotation
          JOINT lForeArm
          {
            OFFSET 28.1742 -1.7115 0.48768
            CHANNELS 3 Zrotation Xrotation Yrotation
            JOINT lHand
            {
              OFFSET 22.5879 0.773209 7.07136
              CHANNELS 3 Zrotation Xrotation Yrotation
              JOINT lThumb1
              {
                OFFSET 1.2192 -0.487915 3.41376
                CHANNELS 3 Zrotation Xrotation Yrotation
                JOINT lThumb2
                {
                  OFFSET 3.37035 -0.52449 3.41376
                  CHANNELS 3 Zrotation Xrotation Yrotation
                  End Site
                  {
                    OFFSET 1.78271 -1.18214 1.43049
                  }
                }
              }
              JOINT lIndex1
              {
                OFFSET 7.75947 0.938293 5.60832
                CHANNELS 3 Zrotation Xrotation Yrotation
                JOINT lIndex2
                {
                  OFFSET 2.54057 -0.884171 1.56538
                  CHANNELS 3 Zrotation Xrotation Yrotation
                  End Site
                  {
                    OFFSET 1.62519 -0.234802 1.16502
                  }
                }
              }
              JOINT lMid1
              {
                OFFSET 8.24714 1.18213 3.41376
                CHANNELS 3 Zrotation Xrotation Yrotation
                JOINT lMid2
                {
                  OFFSET 3.10165 -0.590103 1.0647
                  CHANNELS 3 Zrotation Xrotation Yrotation
                  End Site
                  {
                    OFFSET 2.48547 -0.328903 0.83742
                  }
                }
              }
              JOINT lRing1
              {
                OFFSET 8.82822 0.546677 1.51678
                CHANNELS 3 Zrotation Xrotation Yrotation
                JOINT lRing2
                {
                  OFFSET 2.60934 -0.819778 -0.0198488
                  CHANNELS 3 Zrotation Xrotation Yrotation
                  End Site
                  {
                    OFFSET 2.33842 -0.294052 0.168128
                  }
                }
              }
              JOINT lPinky1
              {
                OFFSET 8.27202 -0.0477905 -0.4584
                CHANNELS 3 Zrotation Xrotation Yrotation
                JOINT lPinky2
                {
                  OFFSET 1.82734 -0.647385 -0.700984
                  CHANNELS 3 Zrotation Xrotation Yrotation
                  End Site
                  {
                    OFFSET 1.69225 -0.51767 -0.607171
                  }
                }
              }
            }
          }
        }
      }
    }
  }
  JOINT rButtock
  {
    OFFSET -8.77824 4.35084 1.2192
    CHANNELS 3 Zrotation Xrotation Yrotation
    JOINT rThigh
    {
      OFFSET 0 -1.70687 -2.19456
      CHANNELS 3 Zrotation Xrotation Yrotation
      JOINT rShin
      {
        OFFSET 0 -36.8199 0.73152
        CHANNELS 3 Zrotation Xrotation Yrotation
        JOINT rFoot
        {
          OFFSET 0.73152 -45.1104 -5.12064
          CHANNELS 3 Zrotation Xrotation Yrotation
          End Site
          {
            OFFSET -1.1221 -3.69964 12.103
          }
        }
      }
    }
  }
  JOINT lButtock
  {
    OFFSET 8.77824 4.35084 1.2192
    CHANNELS 3 Zrotation Xrotation Yrotation
    JOINT lThigh
    {
      OFFSET 0 -1.70687 -2.19456
      CHANNELS 3 Zrotation Xrotation Yrotation
      JOINT lShin
      {
        OFFSET 0 -36.8199 0.73152
        CHANNELS 3 Zrotation Xrotation Yrotation
        JOINT lFoot
        {
          OFFSET -0.73152 -45.1104 -5.12064
          CHANNELS 3 Zrotation Xrotation Yrotation
          End Site
          {
            OFFSET 1.1221 -3.69964 12.103
          }
        }
      }
    }
  }
}
MOTION
Frames:	4
Frame Time:	0.00833333
-4.51136 84.8839 5.64444 0.0 0.0 0.0 -0.194076 -0.00075205 -0.00553939 -0.0535361 -0.00112972 -0.00927443 -1.35389e-15 0.0 4.03781e-17 -4.09062e-15 3.18055e-15 1.28899e-16 -0.0 0.0 0.0 -0.0 0.0 0.0 -6.47398e-16 -3.88251e-19 1.49089e-16 -1.23622e-14 2.91965e-16 1.19271e-15 -2.45648e-13 7.51406e-14 3.18055e-15 -2.8064e-12 -6.60214e-14 8.5875e-14 -6.62168e-12 1.30832e-14 2.00375e-13 -1.14464e-11 2.22639e-14 3.44295e-13 -6.61516e-12 1.27222e-14 1.84472e-13 7.73091 5.47488 0.417314 -6.62261e-12 1.27222e-14 2.03556e-13 2.90554 0.965183 0.102902 -6.61794e-12 1.25234e-14 2.0117e-13 10.2786 0.731801 0.0259123 -6.62708e-12 1.51076e-14 2.06736e-13 2.22167 -0.733487 -0.20892 -7.44141e-16 0.0 -1.49089e-16 -1.62693e-14 4.09993e-16 -3.97569e-16 -2.43412e-13 -7.27552e-14 1.27222e-14 -2.81167e-12 7.36e-14 9.22361e-14 -6.62467e-12 -5.75524e-15 2.00375e-13 -1.14285e-11 -6.36111e-15 3.47476e-13 -6.62987e-12 -5.1684e-15 2.09917e-13 -7.73091 5.47488 -0.417314 -6.62365e-12 -6.26172e-15 1.94014e-13 -2.90554 0.965183 -0.102902 -6.62267e-12 -6.16232e-15 1.9958e-13 -10.2786 0.731801 -0.0259123 -6.61555e-12 -4.37326e-15 1.90833e-13 -2.22167 -0.733487 0.20892 -2.03217e-16 0.0 -3.88251e-19 0.355836 -2.82714 -0.034069 -0.00665493 -0.431851 -0.0584461 -0.502525 3.25828 0.123797 2.03217e-16 0.0 3.88251e-19 -0.65138 -3.58303 0.0525577 0.00446015 0.93745 0.0381216 0.504989 2.64491 -0.111595
-3.13827 83.8923 4.81364 0.8935 12.2673 1.1238 0.496872 3.1826 0.358195 0.0875105 -1.60968 0.121929 -3.32132 -2.21321 -1.28815 3.1364 2.84152 -1.40485 -0.0 0.0 0.0 -0.0 0.0 0.0 -5.16544e-16 -3.78419e-14 3.96878e-14 21.7019 4.13469 0.0203344 -3.91412 -1.72169 6.1737 0.0133133 2.5599 0.358474 -3.73142e-10 -1.15839e-11 5.42557e-10 -6.40499e-10 -2.46364e-11 9.41519e-10 -3.73135e-10 -1.15838e-11 5.42543e-10 7.73091 5.47488 0.417314 -3.73144e-10 -1.15843e-11 5.42557e-10 2.90554 0.965183 0.102902 -3.73136e-10 -1.15843e-11 5.42557e-10 10.2786 0.731801 0.0259123 -3.73145e-10 -1.15819e-11 5.42561e-10 2.22167 -0.733487 -0.20892 -6.18717e-16 -3.78457e-14 3.94623e-14 -22.5023 7.55196 -0.156858 5.78422 -3.03892 -8.54379 -0.00447183 1.48343 -0.20823 -2.67625e-10 -9.37213e-10 -7.07135e-11 -4.63831e-10 -1.62247e-09 -1.20614e-10 -2.67628e-10 -9.37211e-10 -7.07029e-11 -7.73091 5.47488 -0.417314 -2.67623e-10 -9.37213e-10 -7.0719e-11 -2.90554 0.965183 -0.102902 -2.67625e-10 -9.37212e-10 -7.07147e-11 -10.2786 0.731801 -0.0259123 -2.67617e-10 -9.37211e-10 -7.0723e-11 -2.22167 -0.733487 0.20892 -2.03217e-16 0.0 -3.88251e-19 1.19528 -4.00851 -1.83445 0.00300643 5.03035 0.041572 -0.751889 0.149948 -3.61277 2.03217e-16 0.0 3.88251e-19 -0.18881 -6.32185 1.27927 0.00512533 7.3031 -0.0558517 0.560124 0.0423627 0.492484
-3.0855 83.9183 4.78813 0.9712 12.813 1.1899 1.17473 6.54509 0.743996 0.24393 -3.31055 0.259862 -6.94734 -4.55156 -2.66201 6.61567 5.84137 -2.91102 -0.0 0.0 0.0 -0.0 0.0 0.0 -9.4633e-16 -7.81184e-14 8.65272e-14 44.6457 8.50758 0.0455664 -7.65563 -3.47824 12.7253 -0.00757311 5.26456 0.739652 -7.86516e-10 -8.48713e-12 1.1334e-09 -1.35015e-09 -2.43694e-11 1.96698e-09 -7.8651e-10 -8.48649e-12 1.13338e-09 7.73091 5.47488 0.417314 -7.86519e-10 -8.4875e-12 1.13339e-09 2.90554 0.965183 0.102902 -7.86508e-10 -8.48727e-12 1.1334e-09 10.2786 0.731801 0.0259123 -7.86518e-10 -8.48512e-12 1.1334e-09 2.22167 -0.733487 -0.20892 -1.05396e-15 -7.81267e-14 8.63813e-14 -46.2437 15.5308 -0.328937 10.9191 -6.02142 -17.6441 0.00254085 3.05199 -0.428883 -5.63773e-10 -1.98221e-09 -1.35241e-10 -9.77039e-10 -3.43149e-09 -2.30285e-10 -5.63776e-10 -1.9822e-09 -1.35229e-10 -7.73091 5.47488 -0.417314 -5.6377e-10 -1.98221e-09 -1.35246e-10 -2.90554 0.965183 -0.102902 -5.63775e-10 -1.98221e-09 -1.35243e-10 -10.2786 0.731801 -0.0259123 -5.63767e-10 -1.9822e-09 -1.3525e-10 -2.22167 -0.733487 0.20892 -2.03217e-16 0.0 -3.88251e-19 1.99209 -5.26174 -3.74171 -0.00793047 10.8224 0.149849 -1.45343 -3.11775 -7.54341 2.03217e-16 0.0 3.88251e-19 0.417202 -9.19247 2.55368 0.0290743 14.0075 -0.158397 0.669857 -2.70675 1.06785
-3.03904 83.9586 4.77912 0.9974 13.3822 1.1848 1.75608 9.54778 1.09923 0.39177 -4.8267 0.385558 -10.264 -6.62617 -3.88758 9.83075 8.50393 -4.25626 -0.0 0.0 0.0 -0.0 0.0 0.0 -2.54835e-16 -1.13525e-13 1.18765e-13 65.0968 12.4041 0.0622985 -10.6474 -4.92567 18.5838 -0.0568909 7.67848 1.08407 -1.10618e-09 -3.47779e-11 1.62727e-09 -1.8986e-09 -7.39537e-11 2.82387e-09 -1.10618e-09 -3.47768e-11 1.62726e-09 7.73091 5.47488 0.417314 -1.10619e-09 -3.47783e-11 1.62726e-09 2.90554 0.965183 0.102902 -1.10617e-09 -3.47778e-11 1.62727e-09 10.2786 0.731801 0.0259123 -1.10618e-09 -3.47759e-11 1.62727e-09 2.22167 -0.733487 -0.20892 -3.6787e-16 -1.13537e-13 1.18685e-13 -67.3739 22.6552 -0.505498 14.7108 -8.30747 -25.8865 0.0190143 4.45004 -0.626368 -7.89624e-10 -2.81163e-09 -2.12541e-10 -1.36864e-09 -4.86739e-09 -3.62537e-10 -7.89626e-10 -2.81162e-09 -2.12528e-10 -7.73091 5.47488 -0.417314 -7.89621e-10 -2.81163e-09 -2.12545e-10 -2.90554 0.965183 -0.102902 -7.89628e-10 -2.81162e-09 -2.12543e-10 -10.2786 0.731801 -0.0259123 -7.8962e-10 -2.81162e-09 -2.12551e-10 -2.22167 -0.733487 0.20892 -2.03217e-16 0.0 -3.88251e-19 2.65058 -6.34875 -5.4554 -0.0365514 15.9546 0.250785 -2.4636 -5.95225 -11.1463 2.03217e-16 0.0 3.88251e-19 1.0949 -11.7791 3.78946 0.0723104 20.0342 -0.258044 0.835397 -5.16046 1.70733
